<svg width="37" height="37" xmlns="http://www.w3.org/2000/svg" xmlns:xlink="http://www.w3.org/1999/xlink" xml:space="preserve" overflow="hidden"><defs><clipPath id="clip0"><rect x="0" y="0" width="37" height="37"/></clipPath></defs><g clip-path="url(#clip0)"><path d="M18.5 20.75C24.0919 20.75 28.625 16.2169 28.625 10.625 28.625 5.03312 24.0919 0.5 18.5 0.5 12.9081 0.5 8.375 5.03312 8.375 10.625 8.37666 16.2162 12.9088 20.7483 18.5 20.75ZM27.5 23 23.626 23C20.3733 24.5001 16.6267 24.5001 13.374 23L9.5 23C4.52944 23 0.5 27.0294 0.5 32L0.5 33.125C0.500552 34.9887 2.01127 36.4994 3.875 36.5L33.125 36.5C34.9887 36.4994 36.4994 34.9887 36.5 33.125L36.5 32C36.5 27.0294 32.4706 23 27.5 23Z" stroke="#000000"/></g></svg>