<svg xmlns="http://www.w3.org/2000/svg" xmlns:xlink="http://www.w3.org/1999/xlink" width="2254.018" height="1430.558" viewBox="0 0 2254.018 1430.558">
  <defs>
    <linearGradient id="linear-gradient" x1="0.126" y1="0.846" x2="0.739" y2="0.5" gradientUnits="objectBoundingBox">
      <stop offset="0" stop-color="#cf5848"/>
      <stop offset="1" stop-color="#9093b3"/>
    </linearGradient>
  </defs>
  <g id="Path_11" data-name="Path 11" transform="translate(415.96 911.395)" opacity="0.7" fill="url(#linear-gradient)">
    <path d="M 1352.589233398438 368.6632080078125 C 1298.610107421875 368.6642761230469 1225.415283203125 362.4848022460938 1140.662719726562 355.3298034667969 C 1080.83349609375 350.2790222167969 1013.021667480469 344.5540161132812 941.7763671875 340.1758422851562 C 859.9032592773438 335.1448059082031 786.5416870117188 332.6990051269531 717.5000610351562 332.6990051269531 C 648.6163940429688 332.6990051269531 575.2582397460938 335.1345520019531 493.2340393066406 340.1450500488281 C 421.8284912109375 344.5066528320312 353.6503295898438 350.2182312011719 293.4977111816406 355.2574462890625 C 207.6300811767578 362.4508666992188 133.471923828125 368.6632080078125 78.69508361816406 368.6632080078125 C 61.48218536376953 368.6632080078125 47.02034378051758 368.06689453125 34.48350143432617 366.8398132324219 C 27.98508071899414 366.2037353515625 21.96586990356445 365.3845520019531 16.59323883056641 364.4050598144531 C 11.0885009765625 363.4013671875 6.075606346130371 362.1953125 1.692974925041199 360.8203125 C -16.60992050170898 355.0776977539062 -25.50728797912598 346.0426940917969 -25.50728797912598 333.1990051269531 C -25.50728797912598 325.1595458984375 -41.44255065917969 271.2645263671875 -65.56333923339844 189.6842803955078 C -86.91307830810547 117.4761199951172 -113.4836044311523 27.61085319519043 -140.7604522705078 -70.02388000488281 C -155.5857086181641 -123.090202331543 -169.1962280273438 -173.4223022460938 -181.2136077880859 -219.6222991943359 C -195.1396636962891 -273.1599426269531 -207.4886016845703 -323.2994079589844 -217.9175567626953 -368.6478271484375 C -229.6138610839844 -419.5057373046875 -239.2751770019531 -465.9851989746094 -246.6336059570312 -506.7951965332031 C -250.5901794433594 -528.7393798828125 -253.96728515625 -549.5225830078125 -256.6709594726562 -568.5673217773438 C -259.4951782226562 -588.4596557617188 -261.6657104492188 -607.0262451171875 -263.1222839355469 -623.7512817382812 C -264.6388549804688 -641.1646728515625 -265.4249267578125 -657.0791625976562 -265.4583435058594 -671.0523071289062 C -265.4933471679688 -685.5567626953125 -264.7183532714844 -698.3804321289062 -263.1554565429688 -709.1675415039062 C -261.5391235351562 -720.3236083984375 -259.034912109375 -729.612060546875 -255.7128143310547 -736.774169921875 C -254.0159759521484 -740.4323120117188 -252.0707092285156 -743.6109619140625 -249.9309692382812 -746.2220458984375 C -247.7654418945312 -748.8649291992188 -245.3391265869141 -751.0009765625 -242.7193908691406 -752.5709838867188 C -239.5322875976562 -754.4812622070312 -236.0175476074219 -755.9309692382812 -232.2730712890625 -756.8796997070312 C -228.5804443359375 -757.815185546875 -224.5625457763672 -758.2894287109375 -220.3307037353516 -758.2894287109375 C -215.3441314697266 -758.2894287109375 -209.8986053466797 -757.6320190429688 -204.1454467773438 -756.33544921875 C -198.5025482177734 -755.0635986328125 -192.399658203125 -753.1401977539062 -186.0059661865234 -750.6181030273438 C -179.7499237060547 -748.1502075195312 -173.0322875976562 -745.0370483398438 -166.0393981933594 -741.3649291992188 C -159.2125549316406 -737.7802124023438 -151.9217681884766 -733.5565185546875 -144.3688659667969 -728.811279296875 C -129.8867645263672 -719.7125854492188 -113.7464981079102 -708.254150390625 -96.39649963378906 -694.7549438476562 C -80.14334106445312 -682.108642578125 -62.18781280517578 -667.1712646484375 -43.02912902832031 -650.3572998046875 C -25.14860343933105 -634.6652221679688 -6.230446338653564 -617.3843994140625 14.80692195892334 -597.527587890625 C 33.58718490600586 -579.8009643554688 53.66587066650391 -560.385986328125 76.19034576416016 -538.173095703125 C 118.0921859741211 -496.8512573242188 160.7558746337891 -453.4575805664062 205.924560546875 -407.5159912109375 C 303.2395629882812 -308.5362548828125 403.8679809570312 -206.1862487792969 493.4924621582031 -129.0430908203125 C 516.6532592773438 -109.1078338623047 538.532470703125 -91.34967041015625 558.5221557617188 -76.26177978515625 C 569.0829467773438 -68.29045867919922 579.390869140625 -60.85598754882812 589.1593017578125 -54.1646728515625 C 599.2413940429688 -47.25862121582031 609.0592651367188 -40.93125152587891 618.34033203125 -35.35861968994141 C 627.8961181640625 -29.62125205993652 637.1732177734375 -24.50940895080566 645.9140014648438 -20.16519927978516 C 654.8956298828125 -15.70125198364258 663.5814208984375 -11.91335678100586 671.7301025390625 -8.906778335571289 C 680.090087890625 -5.822041034698486 688.1348266601562 -3.467304229736328 695.640869140625 -1.908093810081482 C 703.3324584960938 -0.3101990520954132 710.6869506835938 0.5000641345977783 717.5000610351562 0.5000641345977783 C 726.5164184570312 0.5000641345977783 736.0724487304688 -0.4194095730781555 745.9029541015625 -2.233093738555908 C 755.4874267578125 -4.001514911651611 765.6079711914062 -6.670462131500244 775.9835205078125 -10.16598892211914 C 786.0848388671875 -13.56888294219971 796.7190551757812 -17.8536205291748 807.5908813476562 -22.90098762512207 C 818.1571655273438 -27.80625152587891 829.2545776367188 -33.57440948486328 840.5748291015625 -40.04493713378906 C 851.5537719726562 -46.32046127319336 863.0634765625 -53.44046401977539 874.7837524414062 -61.20651626586914 C 886.1224365234375 -68.72019958496094 897.9929809570312 -77.06046295166016 910.0656127929688 -85.9957275390625 C 921.7098388671875 -94.61414337158203 933.8898315429688 -104.0436172485352 946.2672119140625 -114.0223007202148 C 958.1611328125 -123.6112518310547 970.5989990234375 -133.9988861083984 983.235107421875 -144.8967742919922 C 1007.089050292969 -165.4688873291016 1031.82373046875 -187.9515075683594 1058.852661132812 -213.6294097900391 C 1082.808227539062 -236.3872985839844 1107.939575195312 -261.0659790039062 1135.682495117188 -289.0754699707031 C 1187.030029296875 -340.9157104492188 1238.373779296875 -395.1657104492188 1288.026611328125 -447.6296691894531 C 1366.423461914062 -530.4641723632812 1440.472412109375 -608.7046508789062 1503.993286132812 -666.3638916015625 C 1520.334838867188 -681.1975708007812 1535.65478515625 -694.3530883789062 1549.527709960938 -705.4649658203125 C 1564.29638671875 -717.29443359375 1578.065551757812 -727.3223266601562 1590.4521484375 -735.2704467773438 C 1596.899291992188 -739.4072875976562 1603.136108398438 -743.0875854492188 1608.989501953125 -746.2086181640625 C 1614.976684570312 -749.4012451171875 1620.745361328125 -752.1065063476562 1626.135620117188 -754.2493896484375 C 1631.635864257812 -756.436279296875 1636.908203125 -758.1033325195312 1641.805908203125 -759.2049560546875 C 1646.791381835938 -760.3262329101562 1651.538208007812 -760.8946533203125 1655.913818359375 -760.8946533203125 C 1660.716186523438 -760.8946533203125 1665.21875 -760.2109985351562 1669.296875 -758.862548828125 C 1673.444580078125 -757.490966796875 1677.2861328125 -755.3878173828125 1680.714599609375 -752.6112670898438 C 1685.602172851562 -748.6533813476562 1687.891357421875 -736.129150390625 1687.5185546875 -715.3867797851562 C 1687.34033203125 -705.4799194335938 1686.544799804688 -693.5117797851562 1685.15380859375 -679.81494140625 C 1683.8134765625 -666.6167602539062 1681.8837890625 -651.4520263671875 1679.417724609375 -634.7415161132812 C 1674.779052734375 -603.3059692382812 1668.056396484375 -565.1328125 1659.436645507812 -521.2830810546875 C 1651.587768554688 -481.3549499511719 1641.949829101562 -435.6220397949219 1630.790649414062 -385.3546752929688 C 1588.248291015625 -193.7207183837891 1531.463745117188 29.18269538879395 1493.888549804688 176.6824340820312 C 1470.766357421875 267.4466552734375 1455.491088867188 327.4089965820312 1455.491088867188 333.1990051269531 C 1455.491088867188 346.0437622070312 1446.7119140625 355.0782165527344 1428.652221679688 360.8184814453125 C 1424.326171875 362.1937561035156 1419.376953125 363.3998107910156 1413.942138671875 364.4034729003906 C 1408.636962890625 365.3832092285156 1402.692749023438 366.2026977539062 1396.274047851562 366.8387451171875 C 1383.890380859375 368.0661315917969 1369.600830078125 368.6629638671875 1352.589233398438 368.6632080078125 Z" stroke="none"/>
    <path d="M 1352.589233398438 368.1632080078125 C 1369.583984375 368.1629638671875 1383.857421875 367.56689453125 1396.224853515625 366.3411254882812 C 1402.629516601562 365.7063903808594 1408.559814453125 364.8890075683594 1413.851440429688 363.9116516113281 C 1419.265869140625 362.9118957519531 1424.194580078125 361.7108459472656 1428.500854492188 360.3421630859375 C 1432.881103515625 358.9497985839844 1436.760620117188 357.3384704589844 1440.031127929688 355.5529479980469 C 1443.335083007812 353.749267578125 1446.122680664062 351.7106018066406 1448.31640625 349.4934997558594 C 1450.523193359375 347.2629699707031 1452.20166015625 344.7777099609375 1453.305053710938 342.1063842773438 C 1454.423706054688 339.3974304199219 1454.991088867188 336.4006042480469 1454.991088867188 333.1990051269531 C 1454.991088867188 330.4279479980469 1458.266967773438 315.9848022460938 1465.612670898438 286.367431640625 C 1472.342651367188 259.2332153320312 1482.102661132812 220.9208526611328 1493.404052734375 176.5590057373047 C 1530.978515625 29.06217002868652 1587.76171875 -193.8367767333984 1630.302490234375 -385.4631042480469 C 1641.460815429688 -435.7265014648438 1651.098022460938 -481.4552001953125 1658.945922851562 -521.37939453125 C 1667.564086914062 -565.2218017578125 1674.285400390625 -603.3867797851562 1678.923217773438 -634.8143920898438 C 1681.387939453125 -651.517578125 1683.31689453125 -666.6749267578125 1684.656372070312 -679.865478515625 C 1686.046142578125 -693.5486450195312 1686.8408203125 -705.5028076171875 1687.0185546875 -715.395751953125 C 1687.2021484375 -725.6075439453125 1686.734252929688 -733.899658203125 1685.627685546875 -740.0420532226562 C 1684.515380859375 -746.2162475585938 1682.75634765625 -750.3143920898438 1680.399780273438 -752.2228393554688 C 1677.0185546875 -754.9612426757812 1673.230102539062 -757.0354614257812 1669.139770507812 -758.3878173828125 C 1665.112426757812 -759.7194213867188 1660.662719726562 -760.3946533203125 1655.913818359375 -760.3946533203125 C 1651.574829101562 -760.3946533203125 1646.865112304688 -759.8302001953125 1641.915283203125 -758.717041015625 C 1637.043212890625 -757.6212768554688 1631.79638671875 -755.9617919921875 1626.3203125 -753.784912109375 C 1620.947143554688 -751.6486206054688 1615.195556640625 -748.9512329101562 1609.224853515625 -745.767578125 C 1603.383178710938 -742.652587890625 1597.157958984375 -738.9794311523438 1590.72216796875 -734.8496704101562 C 1578.35009765625 -726.9110107421875 1564.595336914062 -716.89306640625 1549.840087890625 -705.0746459960938 C 1535.975341796875 -693.9691162109375 1520.663208007812 -680.8204345703125 1504.328979492188 -665.9935913085938 C 1440.822387695312 -608.3470458984375 1366.77978515625 -530.1130981445312 1288.389770507812 -447.2857360839844 C 1238.73486328125 -394.8199462890625 1187.389282226562 -340.5678405761719 1136.037719726562 -288.7233581542969 C 1108.290893554688 -260.71044921875 1083.156127929688 -236.0283508300781 1059.196899414062 -213.2667846679688 C 1032.162231445312 -187.5833587646484 1007.421630859375 -165.095458984375 983.5616455078125 -144.5180969238281 C 970.921142578125 -133.6165161132812 958.4793090820312 -123.2254638671875 946.5811157226562 -113.6330947875977 C 934.1982421875 -103.6499328613281 922.0126953125 -94.21625518798828 910.3629760742188 -85.59387969970703 C 898.2835083007812 -76.65335845947266 886.4058837890625 -68.30809020996094 875.059814453125 -60.78993606567383 C 863.330322265625 -53.0175666809082 851.8114013671875 -45.89177703857422 840.8226928710938 -39.61072540283203 C 829.4903564453125 -33.13335800170898 818.38037109375 -27.35861968994141 807.8013916015625 -22.44756698608398 C 796.9129638671875 -17.3925666809082 786.2616577148438 -13.10098838806152 776.1432495117188 -9.692041397094727 C 765.7450561523438 -6.188883304595947 755.6013793945312 -3.514146327972412 745.9935302734375 -1.741514801979065 C 736.1332397460938 0.07769569754600525 726.546630859375 1.000064134597778 717.5000610351562 1.000064134597778 C 710.6529541015625 1.000064134597778 703.2640380859375 0.1863799095153809 695.539306640625 -1.418356895446777 C 688.009033203125 -2.98283052444458 679.9403686523438 -5.344409465789795 671.5569458007812 -8.437567710876465 C 663.3914184570312 -11.45046234130859 654.6890258789062 -15.24572563171387 645.69140625 -19.71756744384766 C 636.9390258789062 -24.06756782531738 627.6500854492188 -29.18572616577148 618.083251953125 -34.92993545532227 C 608.7935180664062 -40.507568359375 598.9671630859375 -46.84046173095703 588.8766479492188 -53.75230407714844 C 579.1019287109375 -60.44783020019531 568.7879638671875 -67.88677978515625 558.2208862304688 -75.86256408691406 C 538.2227172851562 -90.95677947998047 516.3353271484375 -108.7217788696289 493.1663818359375 -128.6641387939453 C 403.526123046875 -205.8209838867188 302.8903503417969 -308.1783447265625 205.5682373046875 -407.1654663085938 C 160.4008636474609 -453.10546875 117.7385025024414 -496.4978332519531 75.83955383300781 -537.8170166015625 C 53.31744766235352 -560.0272827148438 33.24139785766602 -579.43994140625 14.46376419067383 -597.1638793945312 C -6.568867206573486 -617.0165405273438 -25.48281478881836 -634.2933349609375 -43.35886764526367 -649.9815063476562 C -62.51018142700195 -666.7888793945312 -80.45781707763672 -681.72021484375 -96.70333862304688 -694.3602294921875 C -114.0401840209961 -707.8494262695312 -130.1667633056641 -719.2978515625 -144.6349182128906 -728.3878173828125 C -152.1767578125 -733.1262817382812 -159.4562377929688 -737.3433837890625 -166.2717590332031 -740.9223022460938 C -173.2486114501953 -744.5859985351562 -179.9499206542969 -747.6917724609375 -186.1893920898438 -750.15283203125 C -192.5591278076172 -752.6654663085938 -198.6372833251953 -754.58154296875 -204.2551879882812 -755.8475952148438 C -209.9722900390625 -757.135986328125 -215.3809661865234 -757.7894287109375 -220.3307037353516 -757.7894287109375 C -224.521240234375 -757.7894287109375 -228.4978179931641 -757.3201904296875 -232.1501770019531 -756.3949584960938 C -235.8475494384766 -755.4580688476562 -239.3170318603516 -754.0272827148438 -242.4622955322266 -752.142333984375 C -245.0325469970703 -750.601806640625 -247.4151763916016 -748.5033569335938 -249.5443878173828 -745.9052124023438 C -251.6572875976562 -743.3265380859375 -253.5801849365234 -740.18359375 -255.2591247558594 -736.5639038085938 C -258.5609741210938 -729.4454345703125 -261.0512390136719 -720.203857421875 -262.6607055664062 -709.095703125 C -264.2201843261719 -698.3328247070312 -264.9930725097656 -685.5336303710938 -264.9583435058594 -671.0533447265625 C -264.9249267578125 -657.0944213867188 -264.139404296875 -641.1941528320312 -262.6241455078125 -623.79443359375 C -261.1683349609375 -607.078369140625 -258.9988708496094 -588.52099609375 -256.1759643554688 -568.6375732421875 C -253.4730834960938 -549.598876953125 -250.0970306396484 -528.822021484375 -246.1414947509766 -506.8838806152344 C -238.7846527099609 -466.081787109375 -229.1246490478516 -419.6101989746094 -217.4304504394531 -368.7599487304688 C -207.0022888183594 -323.4159851074219 -194.6543884277344 -273.28125 -180.7296600341797 -219.7483520507812 C -168.7130737304688 -173.5512542724609 -155.1033477783203 -123.2217788696289 -140.2788696289062 -70.15835571289062 C -113.0030746459961 27.47269630432129 -86.43307495117188 117.3361129760742 -65.08386993408203 189.5424346923828 C -53.29991912841797 229.3976898193359 -43.1228141784668 263.8179626464844 -36.10018157958984 288.5658569335938 C -28.42834091186523 315.6005859375 -25.00728797912598 329.3661193847656 -25.00728797912598 333.1990051269531 C -25.00728797912598 336.3992614746094 -24.43228912353516 339.3950500488281 -23.29860496520996 342.1034851074219 C -22.18018341064453 344.7745361328125 -20.47886657714844 347.2600708007812 -18.24149894714355 349.4911193847656 C -16.01755142211914 351.7090148925781 -13.19176197052002 353.7484741210938 -9.842288017272949 355.5529479980469 C -6.527551174163818 357.3387451171875 -2.596235513687134 358.9505920410156 1.842711806297302 360.3432312011719 C 6.205606460571289 361.712158203125 11.19850158691406 362.9132080078125 16.68297576904297 363.9132080078125 C 22.04192161560059 364.8903198242188 28.04718589782715 365.7074279785156 34.53218460083008 366.3421630859375 C 47.05271148681641 367.5674438476562 61.49850082397461 368.1632080078125 78.69508361816406 368.1632080078125 C 133.4508666992188 368.1632080078125 207.5992889404297 361.9516296386719 293.4558715820312 354.7590026855469 C 353.6111450195312 349.7197875976562 421.7924499511719 344.0079650878906 493.2034912109375 339.6458435058594 C 575.2379760742188 334.6347961425781 648.6058959960938 332.1990051269531 717.5000610351562 332.1990051269531 C 786.5519409179688 332.1990051269531 859.9229736328125 334.6450500488281 941.806396484375 339.6769104003906 C 1013.057189941406 344.0553283691406 1080.871948242188 349.7803344726562 1140.703735351562 354.8316345214844 C 1225.445556640625 361.985595703125 1298.631103515625 368.1642761230469 1352.589233398438 368.1632080078125 M 1352.589233398438 369.163330078125 C 1221.838500976562 369.16552734375 981.6842651367188 333.1990051269531 717.5000610351562 333.1990051269531 C 453.3398742675781 333.1990051269531 210.940185546875 369.163330078125 78.69510650634766 369.163330078125 C 12.56046104431152 369.163330078125 -26.00728797912598 360.175537109375 -26.00728797912598 333.1990051269531 C -26.00728797912598 297.2708435058594 -354.1270141601562 -686.382568359375 -242.9765014648438 -752.9999389648438 C -236.4377746582031 -756.9188842773438 -228.8485412597656 -758.7894287109375 -220.3308258056641 -758.7894287109375 C -48.54584121704102 -758.7894287109375 507.5855102539062 6.411903450498357e-05 717.5000610351562 6.411903450498357e-05 C 978.9351806640625 6.411903450498357e-05 1493.443115234375 -761.3946533203125 1655.913818359375 -761.3946533203125 C 1665.579711914062 -761.3946533203125 1673.982666015625 -758.7064208984375 1681.029296875 -752.9999389648438 C 1735.449340820312 -708.9293823242188 1455.991088867188 308.8424377441406 1455.991088867188 333.1990051269531 C 1455.991088867188 360.1706237792969 1417.958618164062 369.1622314453125 1352.589233398438 369.163330078125 Z" stroke="none" fill="#707070"/>
  </g>
</svg>
