<svg xmlns="http://www.w3.org/2000/svg" width="34.106" height="34.21" viewBox="0 0 34.106 34.21">
  <path id="Icon_material-donut-small" data-name="Icon material-donut-small" d="M17.4,14.456V3a16.089,16.089,0,0,0,0,32V23.544A5.194,5.194,0,0,1,14.2,19,5.194,5.194,0,0,1,17.4,14.456ZM23.576,17.4H35A16.32,16.32,0,0,0,29.759,6.913,15.616,15.616,0,0,0,20.6,3V14.456A4.491,4.491,0,0,1,23.576,17.4ZM20.6,23.544V35A15.751,15.751,0,0,0,35,20.6H23.576A4.491,4.491,0,0,1,20.6,23.544Z" transform="translate(-2 -1.895)" fill="none" stroke="#000" stroke-width="2"/>
</svg>
