<svg xmlns="http://www.w3.org/2000/svg" width="28.153" height="36" viewBox="0 0 28.153 36">
  <path id="Icon_ionic-ios-lock" data-name="Icon ionic-ios-lock" d="M29.634,15.144H27.673V11.327a7.846,7.846,0,1,0-15.692-.106v3.923H10.019A3.279,3.279,0,0,0,6.75,18.413V34.105a3.279,3.279,0,0,0,3.269,3.269H29.634A3.279,3.279,0,0,0,32.9,34.105V18.413A3.279,3.279,0,0,0,29.634,15.144Zm-8.663,10.2v5.623a1.172,1.172,0,0,1-1.087,1.177A1.146,1.146,0,0,1,18.682,31V25.344a2.615,2.615,0,1,1,2.288,0Zm4.413-10.2H14.269V11.221a5.558,5.558,0,0,1,11.115,0Z" transform="translate(-5.75 -2.374)" fill="none" stroke="#000" stroke-width="2"/>
</svg>
